<svg width="114" height="28" viewBox="0 0 114 28" fill="none" xmlns="http://www.w3.org/2000/svg">
<rect x="0.000610352" y="12" width="32" height="1.54334" rx="0.771672" fill="#E3B873"/>
<rect x="82.0006" y="12" width="32" height="1.54334" rx="0.771672" fill="#E3B873"/>
<path d="M62.4261 7.56018L57.5806 6.10643C57.2169 5.99791 56.843 5.9597 56.4726 5.97323V5.96076H50.5833L40.1396 2.49023L40.1712 17.1652L43.1692 18.6637L44.9443 14.3243L47.5373 15.3617L48.2097 13.6814L49.1835 14.6551L48.275 15.5639C47.9592 15.8796 47.7783 16.3164 47.7783 16.7632C47.7783 17.6775 48.5074 18.421 49.4143 18.4531C49.4459 19.3393 50.1583 20.0517 51.0445 20.0833C51.0761 20.9695 51.7885 21.6819 52.6747 21.7135C52.7073 22.6204 53.4502 23.3495 54.3648 23.3495C54.8114 23.3495 55.2484 23.1685 55.5639 22.8528L56.4726 21.9443L56.8377 22.3094C57.1535 22.6251 57.5902 22.8061 58.037 22.8061C58.9516 22.8061 59.6948 22.077 59.7269 21.1701C60.6131 21.1385 61.3255 20.4261 61.3571 19.5399C62.2433 19.5083 62.9557 18.7959 62.9873 17.9097C63.8942 17.877 64.6236 17.1341 64.6236 16.2198C64.6236 16.1426 64.6111 16.0664 64.6008 15.9897L65.3806 15.2099L66.0107 16.4708L69.424 14.7639L71.4866 18.702L73.8613 17.1195V3.07476L62.4261 7.56018ZM42.6062 17.1673L41.257 16.4925L41.2296 3.99758L47.1842 5.97668L42.6062 17.1673ZM46.9321 13.9488L45.3553 13.3184L48.2179 6.32002L49.7757 6.83795L46.9321 13.9488ZM48.8651 16.7632C48.8651 16.6027 48.9295 16.4458 49.0431 16.332L49.9985 15.3768C50.1121 15.2633 50.2692 15.1985 50.4294 15.1985C50.7654 15.1985 51.0386 15.4721 51.0386 15.8077C51.0386 15.968 50.9739 16.1251 50.8603 16.2386L49.9052 17.1941C49.7916 17.3076 49.6345 17.3721 49.4743 17.3721C49.1383 17.3721 48.8651 17.0988 48.8651 16.7632ZM50.4952 18.3934C50.4952 18.2328 50.5597 18.076 50.6733 17.9622L51.6287 17.007C51.7423 16.8935 51.8994 16.8287 52.0596 16.8287C52.3955 16.8287 52.6688 17.1023 52.6688 17.4379C52.6688 17.5982 52.6041 17.7553 52.4905 17.8688L51.5353 18.8243C51.4218 18.9378 51.2647 19.0023 51.1044 19.0023C50.7685 19.0023 50.4952 18.729 50.4952 18.3934ZM52.1254 20.0236C52.1254 19.863 52.1899 19.7062 52.3035 19.5924L53.2589 18.6372C53.3725 18.5237 53.5296 18.4589 53.6898 18.4589C54.0257 18.4589 54.299 18.7325 54.299 19.0681C54.299 19.2284 54.2343 19.3854 54.1207 19.499L53.1655 20.4545C53.052 20.568 52.8949 20.6325 52.7346 20.6325C52.3987 20.6325 52.1254 20.3592 52.1254 20.0236ZM55.7509 21.1292L54.7957 22.0847C54.6822 22.1982 54.5251 22.2627 54.3648 22.2627C54.0289 22.2627 53.7556 21.9894 53.7556 21.6538C53.7556 21.4932 53.8201 21.3364 53.9337 21.2226L54.8891 20.2674C55.0027 20.1538 55.1598 20.0891 55.32 20.0891C55.6559 20.0891 55.9292 20.3627 55.9292 20.6983C55.9292 20.8586 55.8645 21.0156 55.7509 21.1292ZM62.9276 16.8287C62.7673 16.8287 62.6103 16.7642 62.4967 16.6507L57.9436 12.0973L57.1752 12.8657L61.7283 17.4188C61.8419 17.5326 61.9066 17.6895 61.9066 17.85C61.9066 18.1856 61.6333 18.4589 61.2974 18.4589C61.1371 18.4589 60.9801 18.3944 60.8665 18.2809L56.3134 13.7275L55.545 14.4959L60.0981 19.049C60.2117 19.1628 60.2764 19.3196 60.2764 19.4802C60.2764 19.8158 60.0031 20.0891 59.6672 20.0891C59.5069 20.0891 59.3499 20.0246 59.2363 19.9111L54.6832 15.3577L53.9148 16.1261L58.4679 20.6792C58.5815 20.793 58.6462 20.9498 58.6462 21.1104C58.6462 21.446 58.3729 21.7193 58.037 21.7193C57.8768 21.7193 57.7197 21.6548 57.6061 21.5413L56.9932 20.9281C57.0041 20.8522 57.016 20.776 57.016 20.6983C57.016 19.7837 56.2866 19.0405 55.3797 19.0084C55.3482 18.1222 54.6357 17.4098 53.7495 17.3782C53.718 16.492 53.0055 15.7796 52.1193 15.748C52.0867 14.8411 51.344 14.1117 50.4294 14.1117C50.3522 14.1117 50.2761 14.1242 50.1997 14.1345L48.6483 12.5832L50.863 7.04756H54.074L52.0787 9.04311C51.758 9.3631 51.582 9.78922 51.582 10.2424C51.582 11.1774 52.3427 11.9381 53.278 11.9381C53.7246 11.9381 54.1616 11.7572 54.4771 11.4414L55.9168 10.0015C56.2113 9.70803 56.73 9.69662 57.0367 9.97761L58.3071 11.1421C58.7293 11.529 59.1984 11.8508 59.7004 12.1029L63.3585 15.7886C63.4721 15.9024 63.5368 16.0593 63.5368 16.2198C63.5368 16.5554 63.2635 16.8287 62.9276 16.8287ZM64.0802 14.9735L61.8466 12.723C62.0462 12.7418 62.2473 12.7532 62.45 12.7532V11.6664C61.1849 11.6664 59.9742 11.1955 59.0418 10.3406L57.7712 9.17657C57.054 8.51802 55.8374 8.54429 55.1489 9.23362L53.7095 10.6733C53.5954 10.7863 53.4383 10.8513 53.278 10.8513C52.9421 10.8513 52.6688 10.5781 52.6688 10.2424C52.6688 10.0792 52.7317 9.92666 52.8469 9.81124L54.9183 7.74007C55.527 7.1314 56.441 6.89977 57.2681 7.14759L62.0685 8.58754L64.8674 14.1863L64.0802 14.9735ZM66.4966 15.0128L63.2019 8.42303L65.6082 7.47899L68.9196 13.801L66.4966 15.0128ZM72.7746 16.5382L71.8886 17.1288L66.626 7.08019L72.7746 4.6686V16.5382Z" fill="#E3B873"/>
<circle cx="47.4099" cy="22.6306" r="0.485591" fill="#E3B873"/>
<circle cx="49.468" cy="24.3191" r="0.485591" fill="#E3B873"/>
<path d="M66.8305 1.02686V3.82855H63.9971" stroke="#E3B873" stroke-linecap="round" stroke-linejoin="round"/>
<path d="M45.0104 22.314L45.0104 20.0471L47.2744 20.0471" stroke="#E3B873" stroke-linecap="round" stroke-linejoin="round"/>
<path d="M68.4046 20.4984C67.2633 22.2786 65.1376 24.0167 63.4089 24.9712C61.575 25.9837 59.6102 26.5543 56.9931 26.6906" stroke="#E3B873" stroke-linecap="round"/>
</svg>
