<svg width="206" height="14" viewBox="0 0 206 14" fill="none" xmlns="http://www.w3.org/2000/svg">
<path fill-rule="evenodd" clip-rule="evenodd" d="M6.63807 13.2761L2.308e-05 6.63808L6.63807 3.84663e-05L7.58563 0.947606L1.89516 6.63808L7.58563 12.3286L6.63807 13.2761Z" fill="white"/>
<path fill-rule="evenodd" clip-rule="evenodd" d="M199.098 0L205.736 6.63804L199.098 13.2761L198.15 12.3285L203.84 6.63804L198.15 0.947567L199.098 0Z" fill="white"/>
<path fill-rule="evenodd" clip-rule="evenodd" d="M204.788 7.30784L164.28 7.30784L164.28 5.96777L204.788 5.96778L204.788 7.30784Z" fill="white"/>
<path fill-rule="evenodd" clip-rule="evenodd" d="M1.00001 5.96828L41.508 5.96829L41.508 7.30835L1.00001 7.30834L1.00001 5.96828Z" fill="white"/>
<rect x="125.216" y="1.45654" width="9.56667" height="9.56667" rx="4.78333" fill="white" fill-opacity="0.3"/>
<rect x="98.1107" y="1.45654" width="9.56667" height="9.56667" rx="4.78333" fill="white" fill-opacity="0.3"/>
<rect x="71.0052" y="1.4563" width="9.56667" height="9.56667" rx="4.78333" fill="white"/>
</svg>
