<svg width="28" height="28" viewBox="0 0 28 28" fill="none" xmlns="http://www.w3.org/2000/svg">
<path d="M26.4056 21.1432C25.8241 20.734 25.1529 20.5141 24.475 20.4783C21.92 18.8051 20.2463 17.5493 19.2692 16.5721L16.2675 13.5705L18.089 11.5315C18.4342 11.7264 18.805 11.8548 19.1759 11.9078C19.4557 11.9544 19.6423 11.9544 19.8289 11.9544C20.2021 11.9544 20.2953 11.9544 20.6685 12.2809C20.4819 12.4208 20.3886 12.654 20.3886 12.8872C20.3886 13.1204 20.4819 13.4003 20.6685 13.5869L22.301 15.2194C22.5342 15.4993 22.9073 15.6392 23.2805 15.6392C23.6537 15.6392 24.0268 15.4993 24.26 15.1728L27.5717 11.8611C27.8516 11.6279 27.9915 11.2548 27.9915 10.8816C27.9915 10.5084 27.8516 10.1819 27.5717 9.90208L25.9392 8.26955C25.7526 8.08299 25.5194 7.98969 25.2861 7.98969C25.0529 7.98969 24.8197 8.12962 24.6331 8.26955C24.26 7.94306 24.26 7.84976 24.26 7.47659C24.26 7.29004 24.26 7.0568 24.1667 6.77694C24.0734 6.12392 23.7469 5.47095 23.2338 4.95786L21.5546 3.2787C20.5751 2.29919 20.1087 1.83278 18.8493 1.27306C16.144 0.0136909 13.3921 0.246925 9.38073 2.06601C9.1475 2.15932 9.05424 2.34587 9.10087 2.57911C9.1475 2.81234 9.3341 2.95227 9.56728 2.95227H10.1736C12.2259 2.95227 13.2987 2.95227 15.1645 4.81798C15.9814 5.63493 16.005 6.88758 15.273 7.8092C15.1744 7.82407 15.0993 7.86834 15.0245 7.94306L12.9526 10.2556L11.3864 8.68939C9.66491 6.96793 8.45408 5.33922 7.52218 3.52565C7.47326 2.60797 7.10501 1.74937 6.44221 1.08656C5.64931 0.29366 4.52987 -0.0795044 3.41043 0.0138003C3.2705 0.0604253 3.13057 0.15373 3.08395 0.247035C2.99064 0.386965 2.99064 0.573519 3.08395 0.713449L4.38994 3.04563C4.11008 3.65197 3.45706 4.02514 2.80409 3.97851L1.45142 1.73958C1.40479 1.59965 1.21818 1.50635 1.07825 1.50635C0.938322 1.45972 0.798392 1.55297 0.705087 1.6929C-0.414351 3.37206 0.00543853 5.61094 1.6846 6.777C2.26312 7.19023 2.91488 7.42002 3.57496 7.46714C3.58234 7.47025 3.58928 7.47408 3.59693 7.47665C5.41602 8.40953 7.04855 9.62222 8.77433 11.3481L10.4802 13.0151L0.565212 24.0817C0.192048 24.4549 0.00549316 24.9679 0.00549316 25.481C0.00549316 25.9941 0.192048 26.4605 0.565212 26.8337L1.21824 27.4867C1.5914 27.8132 2.05781 27.9998 2.52423 27.9998C2.99064 27.9998 3.50374 27.8133 3.8769 27.4401L13.7806 16.3543L16.6571 19.2309C17.6357 20.2094 18.8937 21.933 20.5705 24.4478C20.6306 25.3455 20.998 26.1837 21.648 26.8337C22.3476 27.5333 23.2805 27.9065 24.26 27.9065C24.3999 27.9065 24.5399 27.9065 24.6332 27.9065C24.7731 27.9065 24.913 27.8132 25.0063 27.6733C25.0996 27.5333 25.0996 27.3468 25.0063 27.2069L23.6537 24.9214C23.9802 24.315 24.5866 23.9418 25.2862 23.9885L26.5922 26.2273C26.6388 26.3673 26.8254 26.4606 26.9654 26.4606C27.1519 26.414 27.2918 26.3673 27.3851 26.2273C28.5045 24.5481 28.0381 22.3093 26.4056 21.1432ZM15.7709 4.07176C14.2783 2.62584 13.1589 2.15937 11.8995 2.01944C14.5582 1.17986 16.5172 1.22649 18.4762 2.11275C19.5957 2.57916 19.9688 2.95232 20.9483 3.93183L22.6275 5.61099C23.0006 5.98415 23.2338 6.45057 23.2805 6.91698C23.3271 7.15022 23.3271 7.33677 23.3271 7.4767C23.3271 7.9898 23.3738 8.36291 23.9335 8.92262C24.12 9.10918 24.3999 9.20248 24.6331 9.20248C24.913 9.20248 25.1462 9.10918 25.2861 8.92262L26.9187 10.5552C27.012 10.6485 27.0586 10.7417 27.0586 10.8816C27.0586 11.0216 27.012 11.1149 26.9187 11.2081L23.607 14.5198C23.4204 14.7064 23.1406 14.7064 22.954 14.5198L21.3214 12.8873C21.508 12.7474 21.6013 12.5141 21.5547 12.2343C21.5547 12.001 21.4614 11.7212 21.2748 11.5346C20.7151 10.9749 20.3419 10.9283 19.8289 10.9283C19.689 10.9283 19.5024 10.9283 19.2692 10.8816C18.7561 10.835 18.3363 10.6018 17.9632 10.2286L15.9575 8.22298C16.9836 6.96366 16.8904 5.1912 15.7709 4.07176ZM1.12493 2.95233L2.10444 4.63148C2.19774 4.77141 2.33767 4.86472 2.4776 4.86472H2.71084C3.78365 4.91134 4.76316 4.35162 5.22957 3.41879L5.32288 3.18556C5.41618 3.04563 5.41618 2.9057 5.32288 2.76577L4.29669 0.993309C4.85641 1.08661 5.3695 1.36647 5.78929 1.78626C6.27019 2.30723 6.57809 2.9661 6.59629 3.67384C6.58727 3.70975 6.58219 3.74839 6.58219 3.79196C6.58219 4.00797 6.55612 4.21869 6.50785 4.42181C6.3319 5.09719 5.90998 5.68604 5.32282 6.07751C4.38994 6.68386 3.13057 6.68386 2.19774 6.03089C1.21824 5.33113 0.798446 4.07176 1.12493 2.95233ZM9.42741 10.6951C8.02811 9.24916 6.62882 8.12973 5.13621 7.24347C5.36945 7.15016 5.64931 7.01023 5.88249 6.8703C6.58214 6.40389 7.04855 5.79749 7.32841 5.05122C8.21461 6.54382 9.33405 7.94312 10.7333 9.34241L12.3354 10.9445L11.0791 12.3468L9.42741 10.6951ZM3.22388 26.7404C2.85071 27.1135 2.24437 27.1602 1.8712 26.787L1.21818 26.1807C1.03163 25.9941 0.938322 25.7609 0.938322 25.5276C0.938322 25.2478 1.03163 25.0145 1.26481 24.7814L1.52898 24.4858L2.19769 25.1545C2.29099 25.2478 2.38424 25.2945 2.52417 25.2945C2.6641 25.2945 2.75741 25.2478 2.85066 25.1545C3.03721 24.968 3.03721 24.6881 2.85066 24.5015L2.14532 23.7962L2.76173 23.1065L3.50368 23.8485C3.59699 23.9418 3.69024 23.9884 3.83017 23.9884C3.9701 23.9884 4.0634 23.9418 4.15665 23.8485C4.34321 23.6619 4.34321 23.3821 4.15665 23.1955L3.37818 22.4169L15.3757 8.9939L17.3348 10.9529L15.4099 13.1065C15.3549 13.1298 15.3063 13.1653 15.2578 13.2138L13.3921 15.3128C13.3388 15.3661 13.3013 15.4271 13.2785 15.4912L3.22388 26.7404ZM14.4188 15.6399L15.6953 14.211L18.7094 17.2252C19.549 18.1114 20.9949 19.2308 23.0938 20.6301C22.814 20.7234 22.5341 20.8633 22.2543 21.0499C21.6756 21.4116 21.2657 21.9137 20.9801 22.4689C20.9759 22.4768 20.972 22.4849 20.9679 22.4929C20.951 22.5263 20.9344 22.5598 20.9184 22.5936C20.8954 22.6414 20.8735 22.6898 20.8526 22.7387C20.8382 22.7717 20.824 22.8048 20.8105 22.8381C20.8086 22.8429 20.8067 22.8477 20.8048 22.8525C20.7901 22.889 20.7755 22.9255 20.7617 22.9623C20.4968 22.5737 20.2419 22.207 19.9967 21.8615L20.6218 21.2365C20.8083 21.0499 20.8083 20.7701 20.6218 20.5835C20.4352 20.3969 20.1554 20.3969 19.9688 20.5835L19.4488 21.1035C19.255 20.8404 19.0677 20.5923 18.8872 20.3591L19.3158 19.9305C19.5023 19.7439 19.5023 19.464 19.3158 19.2774C19.1292 19.0909 18.8494 19.0909 18.6628 19.2774L18.3067 19.6335C17.9639 19.2203 17.6477 18.8687 17.3568 18.5778L14.4188 15.6399ZM26.9186 24.9679L25.9391 23.2888C25.8458 23.1488 25.7059 23.0555 25.566 23.0555H25.3327C24.2599 22.9622 23.2804 23.5686 22.814 24.5015L22.7207 24.7347C22.6274 24.8746 22.6274 25.0145 22.7207 25.1545L23.7468 26.9269C23.1871 26.8336 22.674 26.5538 22.2542 26.134C21.7824 25.6229 21.4775 24.979 21.4488 24.2866C21.4568 24.2525 21.4613 24.2159 21.4613 24.175C21.4613 23.5841 21.6488 23.0309 21.9758 22.5623C22.1766 22.2827 22.4279 22.038 22.7206 21.8428C23.187 21.5164 23.7001 21.3764 24.2599 21.3764C24.8196 21.3764 25.3793 21.563 25.8457 21.8895C26.8254 22.5891 27.2452 23.8485 26.9186 24.9679Z" fill="#E3B873"/>
</svg>
